<svg width="376" height="376" viewBox="0 0 376 376" fill="none" xmlns="http://www.w3.org/2000/svg">
  <path d="M188.505 328.422C151.374 328.422 115.765 313.672 89.5097 287.417C63.2546 261.162 48.5046 225.552 48.5046 188.422C48.5046 151.292 63.2546 115.682 89.5097 89.4269C115.765 63.1718 151.374 48.4219 188.505 48.4219V0.921875C84.9746 0.921875 0.974609 84.8619 0.974609 188.422C0.974609 291.982 84.9246 375.922 188.475 375.922L188.505 328.422Z" fill="url(#paint0_linear_5997_439)" />
  <path d="M188.504 233.422C213.357 233.422 233.504 213.275 233.504 188.422C233.504 163.569 213.357 143.422 188.504 143.422C163.651 143.422 143.504 163.569 143.504 188.422C143.504 213.275 163.651 233.422 188.504 233.422Z" fill="url(#paint1_linear_5997_439)" />
  <path d="M188.504 48.4219V95.9219C213.036 95.9219 236.564 105.667 253.911 123.014C271.258 140.362 281.004 163.889 281.004 188.422C281.004 212.954 271.258 236.482 253.911 253.829C236.564 271.176 213.036 280.922 188.504 280.922V328.422C225.634 328.422 261.244 313.672 287.499 287.417C313.754 261.162 328.504 225.552 328.504 188.422C328.504 151.292 313.754 115.682 287.499 89.4269C261.244 63.1718 225.634 48.4219 188.504 48.4219V48.4219Z" fill="url(#paint2_linear_5997_439)" />
  <path d="M188.505 233.422C179.604 233.422 170.904 230.783 163.504 225.838C156.104 220.893 150.336 213.865 146.93 205.643C143.524 197.42 142.633 188.372 144.369 179.643C146.106 170.914 150.391 162.895 156.685 156.602C162.978 150.309 170.996 146.023 179.726 144.287C188.455 142.55 197.503 143.441 205.725 146.847C213.948 150.253 220.976 156.021 225.921 163.421C230.865 170.821 233.505 179.522 233.505 188.422H280.975C280.975 170.127 275.55 152.243 265.386 137.032C255.222 121.82 240.775 109.964 223.873 102.963C206.971 95.962 188.372 94.1301 170.429 97.6993C152.486 101.268 136.004 110.078 123.067 123.015C110.131 135.951 101.321 152.433 97.752 170.376C94.1829 188.319 96.0147 206.918 103.016 223.82C110.017 240.722 121.873 255.169 137.084 265.333C152.296 275.497 170.18 280.922 188.475 280.922L188.505 233.422Z" fill="url(#paint3_linear_5997_439)" />
  <defs>
    <linearGradient id="paint0_linear_5997_439" x1="79.6346" y1="359.642" x2="144.265" y2="-6.87812" gradientUnits="userSpaceOnUse">
      <stop offset="0.05" stop-color="#0541F0" />
      <stop offset="0.21" stop-color="#126CF4" />
      <stop offset="0.44" stop-color="#22A2F9" />
      <stop offset="0.64" stop-color="#2DCAFC" />
      <stop offset="0.8" stop-color="#34E2FE" />
      <stop offset="0.9" stop-color="#37EBFF" />
    </linearGradient>
    <linearGradient id="paint1_linear_5997_439" x1="156.684" y1="220.242" x2="220.324" y2="156.602" gradientUnits="userSpaceOnUse">
      <stop offset="0.06" stop-color="#37EBFF" />
      <stop offset="0.19" stop-color="#36E7FF" />
      <stop offset="0.32" stop-color="#32DAFE" />
      <stop offset="0.45" stop-color="#2CC6FC" />
      <stop offset="0.58" stop-color="#23A9F9" />
      <stop offset="0.71" stop-color="#1883F6" />
      <stop offset="0.85" stop-color="#0B56F2" />
      <stop offset="0.9" stop-color="#0541F0" />
    </linearGradient>
    <linearGradient id="paint2_linear_5997_439" x1="186.814" y1="327.802" x2="279.704" y2="72.5819" gradientUnits="userSpaceOnUse">
      <stop offset="0.05" stop-color="#37EBFF" />
      <stop offset="0.16" stop-color="#2DC8FC" />
      <stop offset="0.34" stop-color="#1F98F8" />
      <stop offset="0.51" stop-color="#1472F4" />
      <stop offset="0.66" stop-color="#0C57F2" />
      <stop offset="0.8" stop-color="#0747F1" />
      <stop offset="0.9" stop-color="#0541F0" />
    </linearGradient>
    <linearGradient id="paint3_linear_5997_439" x1="113.525" y1="244.252" x2="244.335" y2="113.432" gradientUnits="userSpaceOnUse">
      <stop offset="0.11" stop-color="#0541F0" />
      <stop offset="0.89" stop-color="#37EBFF" />
    </linearGradient>
  </defs>
</svg>
